<?xml version="1.0" encoding="utf-8"?>
<!-- Generator: Adobe Illustrator 22.1.0, SVG Export Plug-In . SVG Version: 6.00 Build 0)  -->
<svg version="1.1" id="Layer_1" xmlns="http://www.w3.org/2000/svg" xmlns:xlink="http://www.w3.org/1999/xlink" x="0px" y="0px"
	 viewBox="0 0 167.4 212.4" style="enable-background:new 0 0 167.4 212.4;" xml:space="preserve">
<style type="text/css">
	.st0{fill:#CC2028;}
	.st1{opacity:5.000000e-02;}
	.st2{fill:#FFFFFF;}
	.st3{fill:#F0EFEF;}
	.st4{fill-rule:evenodd;clip-rule:evenodd;fill:#FFFFFF;}
	.st5{fill-rule:evenodd;clip-rule:evenodd;fill:#CC2028;}
	.st6{fill-rule:evenodd;clip-rule:evenodd;fill:#B02327;}
	.st7{fill-rule:evenodd;clip-rule:evenodd;}
	.st8{fill:#F4F5F6;}
	.st9{fill:#F6F6F6;}
	.st10{fill:#EB2029;}
</style>
<g>
	<path class="st0" d="M63.5,32c0,0,12.3-4.6,6.9-9.4c-1.6-1.7-3.6,0.1-4.3,1.2c-2-3.2-4.6-2-5.4,0.9S65,29.2,63.5,32z"/>
	<path class="st0" d="M16,104.3c0,0-13,2.1-10.7-4.7c0.5-2.3,3.2-1.7,4.4-1.1c0.2-3.8,3-4.1,5.2-1.9S13.3,102.6,16,104.3z"/>
	<g>
		<path d="M35.3,105.8l-10.8,2l0.1-1.5l5.5-0.9c1.3-0.2,2.7-0.4,3.7-0.6l0,0c-1-0.2-2.3-0.7-3.6-1.1l-5.3-1.8l0.1-1.4l5.5-1
			c1.3-0.2,2.6-0.4,3.7-0.5l0,0c-1.2-0.3-2.3-0.7-3.6-1.1l-5.3-1.7l0.1-1.4l10.5,3.7l-0.1,1.4l-5.6,1c-1.4,0.2-2.4,0.4-3.5,0.5l0,0
			c1,0.3,2.1,0.6,3.4,1l5.5,1.9L35.3,105.8z"/>
		<path d="M32.6,88.2l-0.8,4.1l3.8,0.8l0.9-4.5l1.1,0.2l-1.2,5.9l-10.5-2.1l1.2-5.6l1.1,0.2l-0.9,4.3l3.3,0.7l0.8-4.1L32.6,88.2z"/>
		<path d="M27.8,84l0.4-1.3l9.1,2.8l1.4-4.4l1.1,0.3L38,87.2L27.8,84z"/>
		<path d="M42.6,74c0,0.6-0.1,1.6-0.7,2.8c-1.2,2.8-3.8,4.1-7,2.7c-3.1-1.3-4.3-4.3-2.9-7.3c0.5-1.2,1.1-1.9,1.4-2.1l0.9,0.7
			c-0.4,0.4-0.9,1-1.3,1.8c-1,2.3-0.2,4.5,2.4,5.6c2.4,1,4.5,0.3,5.6-2.1c0.3-0.8,0.5-1.6,0.5-2.2L42.6,74z"/>
		<path d="M43.4,62.5c3.2,1.9,3.7,4.8,2.3,7.1c-1.4,2.4-4.3,3-7.1,1.3c-2.9-1.7-3.7-4.7-2.3-7.1C37.8,61.4,40.7,60.9,43.4,62.5z
			 M39.3,69.7c2,1.2,4.3,1.2,5.5-0.7c1.1-1.9,0-4-2.1-5.2c-1.8-1.1-4.3-1.3-5.5,0.7C36.1,66.5,37.3,68.5,39.3,69.7z"/>
		<path d="M51.1,54.2c-1.2-0.9-2.6-2-3.6-2.8l0,0c0.7,1.1,1.5,2.3,2.2,3.6l2.8,4.8l-0.7,0.8l-5-1.9c-1.5-0.6-2.8-1.1-4-1.7l0,0
			c1,0.9,2.3,2.1,3.5,3.2l3.3,3.2l-0.8,1L41,56.9l1.1-1.3l5.1,1.9c1.3,0.5,2.4,1,3.5,1.5l0,0c-0.7-0.9-1.3-1.9-2-3.2L46,51l1.1-1.3
			l8.6,6.3l-0.9,1L51.1,54.2z"/>
		<path d="M57.8,47.4l-3.1,2.8l2.6,2.8l3.4-3.1l0.8,0.9l-4.4,4.1L49.9,47l4.2-3.9l0.8,0.9l-3.2,3l2.3,2.5l3.1-2.8L57.8,47.4z"/>
		<path d="M60.9,47.4L56,41.6l1.2-1l4.6,6.1L60.9,47.4z M62,49.4c-0.4-0.4-0.3-1,0.1-1.4c0.4-0.4,1-0.3,1.3,0.2
			c0.3,0.4,0.3,1-0.1,1.4C63,49.9,62.4,49.8,62,49.4z"/>
	</g>
</g>
<g>
	<g>
		<path class="st0" d="M114.3,150.4c0,0,0.5-7.1,14.4-4.7c13.9,2.4,21.9,3.2,21.9,3.2s5-3.2,7.1-2.4c2.1,0.8-1.9,4.2-1.9,4.2
			s11,9.1,5.6,16c-5.4,6.9-16.4-5-20.4-6.3C137,158.9,114.7,156.7,114.3,150.4z"/>
	</g>
	<path class="st1" d="M149.3,160.8c-4.9-4.6-10.8-5.8-20.4-8.8c6.2-0.6,11.1-2.8,13.6-4.1c-3.5-0.5-8.1-1.2-13.7-2.2
		c-13.9-2.4-14.4,4.7-14.4,4.7c0.3,6.3,22.6,8.5,26.6,9.9c4,1.3,15,13.2,20.4,6.3c1.1-1.3,1.5-2.8,1.5-4.2
		C159.3,164.4,152.8,164.1,149.3,160.8z"/>
</g>
<g>
	<g>
		<path class="st0" d="M86.5,149c0,0,1.7-6.9-12.2-8.9s-21.8-3.8-21.8-3.8s-3.8-4.6-6-4.5s0.5,4.5,0.5,4.5s-13.3,5.2-10.3,13.5
			s17.2,0.4,21.3,0.4S84.2,154.9,86.5,149z"/>
	</g>
	<path class="st1" d="M50.1,148.1c6.1-2.9,12-2.2,22.1-2.1c-5.7-2.5-9.7-6.1-11.6-8.1c3.5,0.6,8.1,1.4,13.7,2.2
		c14,2,12.2,8.9,12.2,8.9c-2.3,5.9-24.2,1.1-28.4,1.1c-4.2,0-18.3,7.9-21.3-0.4c-0.6-1.6-0.6-3.1-0.1-4.5
		C39.4,148.3,45.7,150.1,50.1,148.1z"/>
</g>
<path class="st0" d="M83.7,139.3c-0.8,0.4-10.7,13-14.5,36.4c-3.1,19.2,7.6,32.1,10.2,35.4c0.7,0.8,1.7,1.3,2.7,1.3h10.3
	c1,0,1.8-0.7,2.1-1.6c0.5-2,1.2-5.8,1-11.9c7.2,1.2,11.3-0.2,11.3-0.2s2.5,8.9,5.7,12.5c0.7,0.8,1.7,1.2,2.7,1.2l10.7,0
	c3.5,0,5.6-4,3.5-6.8c-2.3-3.2-2.6-6.8-2.6-9.5c0-5.7,5.8-13.4,0-33c-5.2-17.5-12.4-22.8-12.4-22.8l-30-1.1L83.7,139.3z"/>
<path class="st1" d="M83.7,139.3c-0.8,0.4-10.7,13-14.5,36.4c-3.1,19.2,7.6,32.1,10.2,35.4c0.7,0.8,1.7,1.3,2.7,1.3h10.3
	c1,0,1.8-0.7,2.1-1.6c0.5-2,1.2-5.8,1-11.9c7.2,1.2,11.3-0.2,11.3-0.2s2.5,8.9,5.7,12.5c0.7,0.8,1.7,1.2,2.7,1.2l10.7,0
	c3.5,0,5.6-4,3.5-6.8c-2.3-3.2-2.6-6.8-2.6-9.5c0-5.7,5.8-13.4,0-33c-5.2-17.5-12.4-22.8-12.4-22.8l-30-1.1L83.7,139.3z"/>
<path class="st2" d="M85.3,142.4c0,0-29,51.7,12,53.7c41,2,18.8-51.7,16.4-54.7C111.3,138.5,84.9,136.8,85.3,142.4z"/>
<path class="st3" d="M87.2,142c-0.1-1.3,1.3-2.2,3.5-2.8c-3.3,0.5-5.5,1.6-5.4,3.2c0,0-29,51.7,12,53.7c7,0.3,12.1-0.9,15.8-3.3
	c-3.5,1.7-8.1,2.6-14.1,2.4C58.5,193.1,87.2,142,87.2,142z"/>
<path d="M76.6,137.5c0,0,0.8,9.2,19.8,13.7s23.1-0.1,25.2-3.1C123.7,145.1,88.6,129.7,76.6,137.5z"/>
<g>
	<g>
		<g>
			<path class="st0" d="M104.1,157.3c-0.8,2.9-3.8,4.5-6.7,3.7c-2.9-0.8-4.7-3.8-3.9-6.6c0.8-2.9,3.8-4.5,6.7-3.7
				C103.1,151.5,104.9,154.5,104.1,157.3z"/>
		</g>
		<g>
			<path class="st2" d="M104.3,156.3c0-0.1,0-0.1,0-0.2c0,0,0,0,0,0c0,0-0.2,0.1-0.2,0.1c0,0-0.1,0.1-0.1,0.1c0,0,0,0,0,0
				c0,0,0,0.1,0,0.1c0,0,0.1,0,0.1-0.1c0,0,0.1,0,0.1,0C104.2,156.3,104.2,156.3,104.3,156.3C104.3,156.3,104.3,156.3,104.3,156.3z"
				/>
			<path class="st2" d="M95,154.7C95,154.7,95.1,154.7,95,154.7c0.1,0,0.1,0,0.1,0C95.1,154.7,95,154.7,95,154.7z"/>
			<path class="st2" d="M98.5,158.6c0.1,0,0.2-0.2,0.3-0.2c0,0,0.1-0.1,0.1-0.2c0,0,0.1-0.1,0.1-0.1c0,0,0.2-0.3,0.2-0.3
				c0.1,0,0.2-0.3,0.3-0.4c0-0.1,0.1-0.3,0.2-0.3c0,0,0.1-0.1,0.2-0.1c0,0,0.2-0.2,0.3-0.2c0.1-0.1,0.2-0.2,0.2-0.3
				c0,0-0.1-0.1-0.1-0.1c0,0-0.1,0-0.2,0c0,0-0.1-0.2-0.1-0.2c0,0,0-0.2,0-0.3c0,0-0.1-0.1-0.1-0.2c0,0,0-0.1,0-0.2c0,0,0,0,0,0.1
				c0,0,0.1,0.2,0.1,0.3c0,0.1,0.1,0.3,0.1,0.3c0,0.1,0.2,0.1,0.3,0.1c0.1,0,0.2,0,0.2-0.1c0,0,0.1,0,0.2-0.1c0,0,0.1-0.1,0.1-0.1
				c0,0,0-0.1,0-0.2c0,0-0.1-0.1-0.1-0.1c0,0,0-0.1-0.1-0.1c0,0-0.1-0.1-0.1-0.1c0,0,0-0.1,0.1-0.1c0,0,0.1,0.1,0.2,0.2
				c0,0.1,0.1,0.2,0.1,0.2c0,0,0.1,0.1,0.2,0c0,0,0.1,0,0.1,0c0,0,0,0,0,0c0.1,0,0.1,0,0.1,0c0,0.1,0,0.1,0,0.2c0,0,0,0.1,0,0.1
				c0,0,0,0.1,0,0.1c0,0,0,0.2,0,0.2c0,0.1,0,0.2,0,0.2c0,0,0,0.1,0,0.1c0,0,0,0.1,0.1,0.1c0,0,0.1-0.2,0.2-0.2
				c0-0.1,0.1-0.1,0.1-0.1c0,0,0,0,0,0c0,0,0.1,0,0.1,0c0,0,0.1-0.1,0.1-0.1c0,0,0.1,0,0.2,0c0,0,0.1,0.1,0.1,0.1c0,0,0,0.1,0,0.1
				c0,0,0,0.1,0.1,0.1c0,0,0,0.1,0,0.1c0,0,0,0.1,0,0.1c0,0,0,0.1,0,0.1c0,0,0,0.1,0,0.1c0,0,0.1,0.2,0.1,0.3c0,0.1,0.1-0.1,0.1-0.1
				c0,0-0.1-0.2-0.1-0.2c0,0,0-0.1,0-0.2c0,0,0.1,0,0.1,0.1c0,0,0,0.1,0,0.1c0,0,0.2,0,0.2-0.1c0-0.1,0.1-0.2,0.1-0.2
				c0,0,0-0.1,0-0.1c0,0,0.1-0.1,0.1-0.1c0.1,0,0.2-0.1,0.3-0.1c0,0,0.1-0.1,0.1-0.1c0,0,0.1-0.1,0.1-0.2c0-0.1,0-0.1,0-0.2
				c0,0,0-0.1,0-0.1c0,0,0-0.1,0-0.1c0,0,0.1,0,0.1,0c0,0,0.1-0.1,0.1-0.1c0,0,0,0,0,0.1c0,0,0,0.2,0,0.2c0,0,0.2-0.1,0.2-0.2
				c0-0.1,0.1-0.2,0.1-0.2c0,0,0.1,0,0.1-0.1c-0.1-0.9-0.3-1.7-0.8-2.4c0,0,0,0,0,0c-0.1,0-0.1-0.1-0.1-0.1c0-0.1-0.1-0.1-0.1-0.2
				c0,0,0,0-0.1,0c0,0-0.1-0.1-0.1-0.1c0,0-0.1,0-0.1,0c0,0-0.1,0-0.1,0c0,0-0.1,0-0.1,0c0,0-0.1,0-0.2,0c0,0-0.1,0-0.2,0
				c0,0-0.1,0-0.1,0.1c0,0-0.1,0-0.1,0c0,0,0,0.1,0,0.1c0,0,0,0-0.1,0c0,0-0.1,0-0.1,0c0,0,0,0,0,0c0,0-0.1-0.1-0.1-0.1
				c0,0-0.1,0-0.1,0c0,0-0.1,0.1-0.2,0.1c0,0-0.2,0-0.3,0c0,0-0.1,0.1-0.1,0.1c0,0-0.1,0-0.1,0c-0.1,0-0.2,0-0.3,0c0,0-0.1,0-0.1,0
				c0,0,0-0.1-0.1-0.1c0,0-0.1,0.1-0.1,0.1c0,0,0-0.1-0.1-0.2c-0.1,0-0.2-0.1-0.2-0.2c0,0-0.1-0.1-0.1-0.1c0,0-0.1-0.1-0.1-0.1
				c0,0-0.1,0-0.2,0c0,0-0.1,0-0.1,0c0,0-0.2,0.1-0.2,0.1c-0.1,0-0.2,0.1-0.2,0.2c0,0-0.1,0-0.1,0c0,0,0,0,0,0c0,0-0.2,0-0.2,0.1
				c0,0.1,0,0.2-0.1,0.2c0,0,0,0.2,0,0.2c0,0,0,0.1,0,0.1c0,0,0,0.1,0,0.1c0,0-0.1,0-0.1,0c0,0-0.1,0.1-0.1,0.1c0,0-0.1,0-0.1,0
				c0,0,0,0,0-0.1c0,0,0-0.1,0-0.1c0,0,0-0.2,0-0.2c0,0-0.1-0.1-0.1-0.1c0,0,0,0,0-0.1c0,0-0.1,0-0.1,0c0,0-0.1,0.2-0.1,0.2
				c0,0,0,0.1,0,0.1c0,0,0,0.1,0,0.1c0,0-0.1,0.1-0.1,0.1c0,0,0,0.1-0.1,0.1c0,0,0.1,0,0.2,0c0.1,0,0.1,0.1,0.1,0.1c0,0-0.1,0-0.1,0
				c0,0-0.1,0-0.1,0.1c0,0,0,0.1,0,0.1c0,0,0,0.1,0.1,0.1c0,0,0,0.1,0,0.1c0,0-0.1-0.1-0.2-0.1c-0.1,0-0.2,0.1-0.2,0.1
				c0,0,0,0.2,0,0.2c0,0,0.1,0.1,0.1,0.1c0,0,0.1,0,0.1,0.1c0,0,0.1-0.1,0.2-0.1c0,0,0.2-0.1,0.2-0.1c0,0,0.2,0,0.2,0
				c0,0,0,0.1,0,0.2c0,0.1,0.1,0.1,0.1,0c0-0.1,0-0.1,0-0.1c0,0,0.1,0.1,0.1,0.1c0,0,0,0.1,0,0.1c0,0,0,0.1,0,0.1
				c0,0,0.1-0.1,0.1-0.1c0,0,0.1-0.1,0.1-0.1c0,0,0,0,0.1,0c0,0,0-0.1-0.1-0.2c0-0.1,0,0,0.1,0.1c0,0,0,0,0,0.1c0,0,0,0.1,0,0.1
				c0,0,0,0,0,0c0,0,0,0.1,0,0.1c0,0,0,0.1,0.1,0.1c0,0,0,0,0,0c0,0,0,0.1,0,0.1c0,0,0.1-0.1,0-0.1c0,0,0-0.1,0-0.2
				c0,0,0-0.1,0.1-0.1c0,0,0,0.1,0,0.1c0,0,0,0.1,0,0.1c0,0,0,0,0,0c0.1,0.1,0.1,0.1,0.1,0.1c0.1,0,0.2,0.1,0.2,0.1c0,0,0.1,0,0.1,0
				c0,0,0,0,0,0c0,0-0.1,0.1-0.1,0.1c0,0-0.2-0.1-0.3-0.1c-0.1,0-0.2,0-0.3,0c0,0-0.1-0.1-0.2-0.2c-0.1,0-0.1-0.2-0.1-0.2
				c0,0,0,0,0-0.1c0,0-0.2-0.1-0.2-0.1c-0.1,0-0.3,0-0.4,0c-0.1,0-0.1,0-0.2-0.1c0,0-0.1,0-0.1,0.1c0,0-0.1,0.1-0.2,0.2
				c0,0,0,0-0.1,0.1c0,0,0,0,0,0c-0.1,0-0.2,0.2-0.3,0.2c0,0-0.1,0.3-0.2,0.4c0,0.1,0,0.3,0,0.4c0,0.1,0.1,0.2,0.2,0.3
				c0,0,0.2,0.1,0.2,0.1c0.1,0,0.1,0,0.2-0.1c0,0,0,0,0.1,0c0,0,0,0,0,0c0,0,0.1,0.1,0.1,0.1c0,0,0.1,0,0.1,0c0,0,0,0.2,0,0.2
				c0,0.1,0,0.3,0,0.3c0,0.1,0,0.2,0,0.3c0,0.1-0.1,0.2-0.1,0.3c0,0.1,0,0.3,0,0.3c0,0.1,0,0.2,0,0.2c0,0,0,0.3,0,0.3
				C98.1,158.5,98.4,158.6,98.5,158.6z"/>
			<path class="st2" d="M95.5,154.5C95.4,154.5,95.4,154.5,95.5,154.5c-0.1-0.1-0.1-0.1-0.1,0C95.4,154.5,95.4,154.5,95.5,154.5
				C95.4,154.5,95.4,154.6,95.5,154.5C95.5,154.6,95.5,154.5,95.5,154.5z"/>
			<path class="st2" d="M95.2,154.7c0,0,0.1,0.1,0.1,0.1c0,0,0.1,0,0.1,0c0,0,0-0.1,0-0.1c-0.1,0-0.1-0.1-0.1-0.1
				c0,0-0.1-0.1-0.1-0.1c0,0-0.2-0.1-0.2-0.1s-0.1,0-0.1,0c0,0,0.1,0.1,0.1,0c0,0,0.1,0.1,0.2,0.1C95.2,154.6,95.2,154.6,95.2,154.7
				C95.3,154.6,95.2,154.7,95.2,154.7z"/>
			<path class="st2" d="M95.4,154.4C95.4,154.3,95.3,154.3,95.4,154.4C95.3,154.3,95.3,154.3,95.4,154.4
				C95.3,154.4,95.4,154.4,95.4,154.4z"/>
			<path class="st2" d="M95.5,154.8C95.5,154.8,95.6,154.9,95.5,154.8C95.7,154.8,95.7,154.8,95.5,154.8
				C95.6,154.8,95.5,154.8,95.5,154.8z"/>
			<path class="st2" d="M94.8,156.5c0,0,0.1,0.2,0.1,0.3c0,0.1,0,0.1,0,0.2c0,0,0,0.1,0,0.1c0,0-0.1,0.2-0.1,0.2
				c0,0.1-0.1,0.2-0.2,0.3c0,0.1,0,0.2,0,0.2c0,0,0,0.1,0,0.1c0,0-0.1,0.1-0.1,0.1c0,0,0,0.1,0,0.1c0,0,0,0.2,0,0.3
				c0,0.1,0,0.2,0,0.2c0,0,0,0.1,0,0.1c0,0,0,0,0,0c0,0,0.1,0,0.1,0.1c0,0,0.1,0,0.2,0c0,0,0,0,0-0.1c0,0,0-0.1,0-0.1
				c0,0,0-0.1,0-0.1c0,0,0.1,0,0.1-0.1c0,0,0-0.1,0-0.1c0,0,0-0.1,0-0.2c0-0.1,0.1-0.1,0.2-0.1c0,0,0.2-0.1,0.2-0.1
				c0,0,0.1-0.1,0.1-0.2c0,0,0.1,0,0.1,0c0,0,0.1,0,0.1,0c0,0,0.1,0,0.1-0.1c0,0,0.1-0.1,0.1-0.2c0,0,0.1-0.1,0.1-0.1
				c0,0,0.1-0.1,0.1-0.1c0,0,0.2,0,0.2,0c0,0,0.1-0.2,0.1-0.2c0-0.1,0.1-0.1,0.1-0.2c0,0,0.1,0,0.1,0c0,0,0.1-0.1,0.1-0.1
				c0,0,0.1-0.1,0.1-0.1c0,0,0-0.1,0.1-0.1c0,0,0,0,0,0c0-0.1,0-0.1,0-0.1c0-0.1,0-0.2-0.1-0.1c0,0-0.1-0.1-0.1-0.1
				c0,0-0.1-0.1-0.1-0.1c0,0-0.1-0.1-0.1-0.1c0,0-0.1-0.1-0.1-0.1c0,0,0-0.2-0.1-0.2c-0.1-0.1-0.2-0.2-0.2-0.2c0,0-0.1-0.2-0.2-0.2
				c0,0-0.1-0.1-0.1-0.1c0,0,0-0.1-0.1-0.1c0,0-0.1-0.1-0.1-0.1c0,0-0.1,0-0.1,0c0,0-0.1,0-0.1,0c0,0-0.1,0.1-0.2,0.1
				c0,0-0.1,0-0.1-0.1c0,0-0.1,0-0.1,0c0,0,0-0.1,0-0.2c0-0.1,0-0.2-0.1-0.2c-0.1,0,0-0.1,0-0.2c0,0-0.1-0.1-0.1-0.1
				c0,0-0.1,0-0.1,0.1c0,0-0.2-0.1-0.2-0.2c0.1-0.1,0.2-0.2,0.2-0.3c0,0,0.2,0,0.2,0.1c0,0,0.1,0,0.1,0c0,0,0.1,0,0.2,0.1
				c0,0,0,0.2,0.1,0.2c0,0,0.1-0.1,0.1-0.1c0,0,0-0.1,0-0.1c0,0,0.1-0.2,0.2-0.2c0.1,0,0.2-0.1,0.2-0.1c0,0,0.1,0,0.1,0
				c0,0,0-0.1,0.1-0.2c0,0,0.2-0.1,0.2-0.1c0,0,0.1-0.1,0.1-0.1c0,0,0.1-0.1,0.2-0.1c0.1,0,0.1,0.1,0.1,0.1c0,0,0.1,0,0.1,0
				c0,0,0-0.1,0-0.1c0,0,0-0.1,0-0.1c0,0,0.1-0.1,0.1-0.1c0,0,0.1,0,0.2,0c0.1,0,0,0.1-0.1,0.1c0,0,0,0.1,0,0.1c0,0,0,0,0,0.1
				c0,0,0.1,0,0.1,0c0,0,0.1,0,0.1-0.1c0,0-0.1-0.1-0.1-0.1c0,0,0-0.2,0-0.2c0,0,0-0.1,0-0.1c0,0,0-0.1,0-0.1c0,0,0-0.1,0-0.1
				c0,0-0.1-0.1-0.1-0.2c0,0,0,0,0,0c0,0-0.1,0-0.1,0c0,0,0-0.1,0-0.1c0,0-0.1-0.1-0.1-0.1c0,0-0.1,0-0.1-0.1c0,0-0.1-0.1-0.1-0.1
				c0,0-0.1,0.3-0.1,0.3c0,0.1-0.1,0.1-0.1,0.1c0,0,0,0,0,0c0,0-0.1,0.1-0.1,0.1c0,0.1-0.1,0-0.1-0.1c0-0.1,0-0.1,0-0.1
				c0,0,0,0-0.1,0c0,0-0.1-0.1-0.1-0.1c0,0,0-0.2,0-0.2c0,0,0,0,0,0c0,0,0.1-0.1,0.1-0.1c0,0,0.2-0.1,0.2-0.1c0,0,0.1-0.1,0.1-0.1
				c0,0,0.2,0,0.2,0c0,0,0.1-0.1,0.1-0.1c0,0,0-0.1,0-0.1c0,0,0.1,0,0.1,0c0,0,0.1,0,0.1,0c0,0,0.1,0.1,0.1,0.1c0,0,0,0,0,0.1
				c-0.1,0.1-0.1,0.1-0.1,0.1c-0.1,0-0.2,0.1-0.2,0.1c0,0,0.2,0.1,0.3,0.2c0,0.1,0.1,0,0.1-0.1c0,0,0-0.1,0-0.1c0,0,0.1,0,0.1,0
				c0,0,0.1,0,0.1,0c0,0,0-0.1,0.1-0.1c0,0,0,0,0-0.1c0,0-0.1-0.1-0.1-0.1c0,0,0-0.1,0-0.1c0,0,0-0.1,0-0.1c0,0-0.1-0.1-0.1-0.1
				c0,0,0-0.1-0.1-0.1c0,0-0.1-0.1-0.2-0.1c0,0-0.1-0.1-0.1-0.1c-0.1,0-0.1-0.1-0.1-0.1c0,0-0.2,0.1-0.2,0.2c0,0.1,0,0.2,0,0.2
				c0,0,0,0.1-0.1,0.1c0,0-0.1,0,0-0.1c0,0,0-0.1,0-0.2c0,0-0.1-0.1-0.1-0.1c0,0-0.1,0-0.1,0.1c0,0,0,0.1,0,0.1c0,0-0.1,0-0.1,0
				c0,0,0,0,0,0c-0.1,0.1-0.3,0.2-0.4,0.3c0,0-0.1,0.1-0.1,0.1c-0.1,0.1-0.2,0.2-0.3,0.2c0,0-0.1,0.1-0.1,0.1
				c-0.1,0.1-0.2,0.2-0.3,0.3c-0.1,0.1-0.1,0.1-0.2,0.2c0,0-0.1,0.1-0.1,0.1c-0.1,0.1-0.1,0.2-0.2,0.3c0,0,0,0.1,0,0.1
				c-0.1,0.2-0.2,0.4-0.3,0.7c0,0,0,0.1,0,0.1c0,0,0.1,0.1,0.1,0.1c0,0,0-0.1,0-0.1c0,0,0,0,0,0c0,0,0,0.1,0.1,0.2c0,0,0,0.2,0,0.3
				c0,0,0.2,0.2,0.3,0.2c0.1,0,0.1,0.1,0.2,0.2c0,0,0.1,0.1,0.1,0.1c0,0,0.1,0.1,0.1,0.1c0,0,0,0.1,0,0.1c0,0,0.1,0.1,0.1,0.1
				c0,0,0.1,0,0.1,0c0,0,0,0.1,0,0.1c0,0,0,0.1,0,0.1c0,0-0.1,0.1-0.1,0.2c0,0-0.1,0.2-0.1,0.2c0,0,0,0.1,0.1,0.2c0,0,0,0.1,0,0.1
				c0,0-0.1,0.2,0,0.2c0,0,0.1,0.1,0.1,0.1C94.7,156.4,94.7,156.5,94.8,156.5z"/>
			<path class="st2" d="M96.4,151.1c0.1,0,0.2,0,0.2,0c0,0,0-0.1,0-0.1c0,0,0,0,0,0c0,0,0.1-0.1,0.1-0.1c0,0,0.2,0,0.2,0
				c0,0,0.1-0.1,0.2-0.1c0,0,0.1-0.1,0.1-0.1c0,0,0.1,0,0.2-0.1c0,0,0.1,0,0.1-0.1c0,0-0.1,0-0.3,0.1c-0.2,0-0.3,0.1-0.5,0.1
				C96.6,150.9,96.5,150.9,96.4,151.1c-0.1-0.1-0.1-0.1-0.2,0C96.3,151.1,96.4,151.1,96.4,151.1z"/>
			<path class="st2" d="M95.9,151.8c0,0,0,0.1,0,0.1c0,0,0.1-0.1,0.2-0.1c0,0,0.1,0.1,0.1,0c0,0-0.1-0.1-0.1-0.1
				C96,151.8,95.9,151.8,95.9,151.8z"/>
			<path class="st2" d="M98.9,151.5c0,0,0.1-0.1,0.1-0.1c0,0,0.1,0,0.1,0c0,0,0.1,0,0.1,0c0,0,0.1-0.1,0-0.1c0,0-0.1,0-0.1-0.1
				c0,0-0.1-0.1-0.2-0.1c0,0,0-0.1,0.1-0.1c0.1,0,0-0.1,0-0.1c-0.1,0-0.2-0.1-0.2-0.1c0,0-0.1,0-0.1-0.1c0,0-0.2,0-0.3,0
				c-0.1,0-0.2-0.1-0.3-0.1c0,0-0.1,0.1-0.1,0.1c0,0-0.2,0-0.2,0c-0.1,0-0.4,0-0.5,0c-0.1,0-0.2,0.1-0.2,0.1c0,0-0.1,0-0.1,0.1
				c0,0-0.1,0-0.2,0c0,0,0,0,0,0.1c0,0,0,0,0.1,0c0,0,0.1,0.1,0.1,0.1c0,0-0.1,0-0.1,0c0,0-0.1,0.1,0,0.1c0,0,0.1,0.1,0.1,0
				c0,0,0.1,0,0.2,0.1c0,0,0,0.1,0.1,0.2c0,0,0,0.1,0,0.1c0,0,0.1,0.1,0.1,0.1c0,0,0,0,0,0c0,0,0,0.1,0,0.1c0,0,0,0.1,0,0.1
				c0,0,0,0.1-0.1,0.1c0,0,0,0.2,0,0.3c0,0.1,0,0.2,0,0.2c0,0,0.1,0,0.1,0.1c0,0,0.1,0,0.1,0c0,0,0.1,0,0.1-0.1c0,0,0.1-0.2,0.2-0.2
				c0,0,0.1,0,0.1,0c0,0,0.1,0,0.1,0c0,0,0.2,0,0.2,0c0,0,0.1-0.1,0.2-0.1c0,0,0,0,0-0.1c0,0,0-0.1,0-0.1c0,0,0.1,0.1,0.1,0.1
				c0,0,0.1,0,0.1,0c0,0,0,0,0,0c0,0,0-0.1,0-0.1c0,0,0.1-0.1,0.1-0.2c0-0.1,0.1-0.2,0.1-0.2C98.9,151.6,98.9,151.5,98.9,151.5
				C98.9,151.5,98.9,151.5,98.9,151.5z"/>
			<path class="st2" d="M95.2,154.3C95.2,154.3,95.2,154.3,95.2,154.3C95.2,154.3,95.2,154.4,95.2,154.3
				C95.2,154.4,95.2,154.3,95.2,154.3z"/>
			<path class="st2" d="M103.5,158c0.1,0.1,0.2,0.1,0.2,0C103.7,158,103.6,157.9,103.5,158z"/>
			<path class="st2" d="M101.5,157c0,0,0.1,0.1,0.1,0.1C101.6,157.1,101.6,157,101.5,157C101.6,156.9,101.5,156.9,101.5,157z"/>
			<path class="st2" d="M103.5,157.5c0,0,0.1,0,0.1,0c0,0,0.1-0.1,0.1-0.1c0,0,0-0.1-0.1-0.1c0,0-0.1,0-0.1,0c0,0-0.1,0-0.1,0
				c0,0,0,0,0,0C103.5,157.4,103.5,157.4,103.5,157.5z"/>
			<path class="st2" d="M102.5,157.8c0-0.1-0.1-0.2-0.1-0.2c0,0,0,0,0,0c0-0.1,0-0.1,0-0.1c0-0.1-0.1-0.1-0.1-0.1c0,0,0,0-0.1,0
				c0,0,0,0,0.1,0.1c0.1,0.1,0.1,0.4,0.1,0.5C102.4,158,102.5,157.9,102.5,157.8z"/>
			<path class="st2" d="M103.5,158.7c-0.1,0-0.2,0-0.2,0c0,0-0.1,0-0.2,0c0,0-0.1,0.1-0.1,0.1c0,0-0.1,0-0.1,0c0,0-0.1,0-0.1,0.1
				c0,0,0,0,0,0c0,0,0,0,0,0c-0.1,0-0.1,0-0.1,0c0,0.1-0.2,0.1-0.2,0.1c0,0-0.1,0.1-0.1,0.2c0,0.1,0,0.1,0,0.2c0,0,0,0,0,0
				c0,0.1,0,0.1,0,0.1c0,0.1,0,0.1,0,0.2c0,0,0.2,0,0.2,0c0,0,0,0,0,0C102.9,159.4,103.2,159.1,103.5,158.7
				C103.5,158.7,103.5,158.7,103.5,158.7z"/>
			<path class="st2" d="M103.8,158.1c0,0-0.1,0-0.1,0c0,0,0,0-0.1,0c0,0,0,0,0,0c0,0,0.1,0,0.1,0.1
				C103.7,158.2,103.8,158.2,103.8,158.1C103.8,158.1,103.8,158.1,103.8,158.1z"/>
			<path class="st2" d="M99.4,158.3C99.4,158.4,99.5,158.4,99.4,158.3c0.1,0.1,0.2,0,0.2,0c0,0,0-0.1,0.1-0.1c0,0,0-0.1,0-0.1
				c0,0,0,0,0.1-0.1c0,0,0-0.3,0-0.3c0,0-0.1,0-0.1,0c0,0-0.2,0.1-0.2,0.1c0,0-0.1,0.1-0.1,0.1c0,0,0,0.1-0.1,0.1
				C99.4,158.1,99.4,158.3,99.4,158.3z"/>
			<path class="st2" d="M103.3,157.9c0,0-0.2,0.1-0.2,0.2c0,0.1,0,0.1,0,0.1c0,0,0.1,0,0.1,0c0,0,0,0,0,0c0,0,0-0.1,0.1-0.1
				C103.3,158,103.3,157.9,103.3,157.9z"/>
			<path class="st2" d="M103.5,157C103.6,157,103.5,156.9,103.5,157c-0.1-0.1-0.1,0-0.1,0.1C103.4,157.1,103.5,157,103.5,157z"/>
			<path class="st2" d="M103.1,157.8c0,0,0.1-0.1,0.1-0.2c0,0,0-0.1-0.1-0.1c0,0-0.2,0.2-0.3,0.2c-0.1,0-0.2,0.1-0.1,0.2
				c0,0,0.2,0.1,0.2,0.1c0,0,0.1,0,0.1,0c0,0,0,0,0,0c0,0,0.1-0.1,0.1-0.1C103.1,157.9,103.1,157.9,103.1,157.8z"/>
			<path class="st2" d="M103.4,156.6c0,0,0,0.1,0,0.1c0,0,0,0,0,0C103.5,156.7,103.5,156.6,103.4,156.6z"/>
			<path class="st2" d="M102.4,158.1c0,0,0.2,0.1,0.3,0.2c0.1,0,0.1,0.1,0.1,0c0,0-0.2-0.2-0.2-0.2
				C102.5,158,102.4,158.1,102.4,158.1z"/>
		</g>
	</g>
	<path class="st1" d="M97.4,160.8c-2.7-1.1-4-4.1-3-6.8c1.1-2.6,4.1-3.9,6.9-2.8c0.5,0.2,0.9,0.4,1.3,0.7c-0.5-0.4-1-0.8-1.7-1
		c-2.8-1.1-6,0.1-7.1,2.9s0.3,5.9,3.1,7c1.1,0.4,2.2,0.5,3.2,0.3C99.1,161.2,98.2,161.1,97.4,160.8z"/>
</g>
<g>
	<path class="st3" d="M117,175.4c0-0.3-0.2-0.6-0.5-0.7c-0.3-0.1-0.6-0.1-0.9,0.1c-1,0.6-7,1.3-17.1,0.8c-10-0.5-16-1.8-16.9-2.5
		c-0.3-0.2-0.6-0.3-0.9-0.1s-0.5,0.4-0.6,0.7c-0.2,1-0.4,1.9-0.4,2.9c-0.2,4.5,1.5,8.8,4.9,12.1c3.4,3.3,8,5.3,13,5.5
		c0.4,0,0.7,0,1.1,0c4.6,0,9-1.5,12.4-4.2c3.7-3,5.9-7.1,6.1-11.6C117.2,177.3,117.2,176.3,117,175.4z"/>
	<g>
		<polygon class="st4" points="80.9,178.7 80.5,178.8 80.6,179.4 81,179.3 		"/>
		<path class="st4" d="M80.8,177.7l-0.4,0c0,0.2,0,0.4,0,0.6l0.4,0C80.8,178.1,80.8,177.9,80.8,177.7z"/>
		<polygon class="st4" points="80.8,176.7 80.4,176.7 80.4,177.3 80.8,177.3 		"/>
		<polygon class="st4" points="81.6,181.7 81.2,181.9 81.4,182.4 81.8,182.3 		"/>
		<path class="st4" d="M81.3,180.8l-0.3,0.1c0.1,0.2,0.1,0.4,0.2,0.6l0.3-0.1C81.3,181.1,81.3,180.9,81.3,180.8z"/>
		<polygon class="st4" points="81,179.8 80.7,179.8 80.8,180.4 81.2,180.3 		"/>
		<polygon class="st4" points="82.9,184.5 82.6,184.7 82.9,185.2 83.2,185 		"/>
		<path class="st4" d="M82.4,183.6l-0.3,0.2c0.1,0.2,0.2,0.4,0.3,0.5l0.3-0.2C82.5,184,82.4,183.8,82.4,183.6z"/>
		<polygon class="st4" points="81.9,182.7 81.6,182.8 81.8,183.4 82.2,183.2 		"/>
		<polygon class="st4" points="84.7,187 84.4,187.2 84.8,187.7 85.1,187.4 		"/>
		<path class="st4" d="M84,186.2l-0.3,0.2c0.1,0.2,0.2,0.3,0.4,0.5l0.3-0.2C84.2,186.5,84.1,186.4,84,186.2z"/>
		<polygon class="st4" points="83.4,185.4 83.1,185.6 83.5,186.1 83.7,185.9 		"/>
		<polygon class="st4" points="86.9,189.1 86.7,189.4 87.2,189.7 87.4,189.5 		"/>
		<polygon class="st4" points="86.1,188.5 85.9,188.7 86.3,189.1 86.6,188.8 		"/>
		<path class="st4" d="M85.4,187.8l-0.2,0.3c0.1,0.1,0.3,0.3,0.4,0.4l0.2-0.3C85.7,188,85.5,187.9,85.4,187.8z"/>
		<polygon class="st4" points="89.5,190.8 89.4,191.1 89.9,191.4 90,191 		"/>
		<polygon class="st4" points="88.6,190.3 88.4,190.6 88.9,190.9 89.1,190.6 		"/>
		<path class="st4" d="M87.8,189.7l-0.2,0.3c0.2,0.1,0.3,0.2,0.5,0.3l0.2-0.3C88.1,189.9,87.9,189.8,87.8,189.7z"/>
		<path class="st4" d="M92.4,192l-0.1,0.3c0.2,0.1,0.4,0.1,0.6,0.2l0.1-0.3C92.7,192.1,92.5,192.1,92.4,192z"/>
		<polygon class="st4" points="91.4,191.6 91.3,192 91.8,192.2 91.9,191.9 		"/>
		<path class="st4" d="M90.4,191.2l-0.1,0.3c0.2,0.1,0.3,0.2,0.5,0.2l0.1-0.3C90.8,191.4,90.6,191.3,90.4,191.2z"/>
		<polygon class="st4" points="95.3,192.8 95.3,193.1 95.9,193.2 95.9,192.9 		"/>
		<polygon class="st4" points="94.3,192.6 94.3,192.9 94.8,193 94.9,192.7 		"/>
		<polygon class="st4" points="93.3,192.3 93.3,192.6 93.8,192.8 93.9,192.5 		"/>
		<polygon class="st4" points="98.4,193 98.4,193.4 99,193.4 99,193 		"/>
		<path class="st4" d="M97.4,193l0,0.4c0.2,0,0.4,0,0.6,0l0-0.4C97.8,193,97.6,193,97.4,193z"/>
		<polygon class="st4" points="96.4,192.9 96.3,193.2 96.9,193.3 96.9,193 		"/>
		<polygon class="st4" points="101.5,192.8 101.6,193.2 102.1,193.1 102.1,192.7 		"/>
		<polygon class="st4" points="100.5,192.9 100.5,193.3 101.1,193.2 101.1,192.9 		"/>
		<polygon class="st4" points="99.5,193 99.5,193.4 100.1,193.3 100,193 		"/>
		<path class="st4" d="M104.5,192.2l0.1,0.3c0.2,0,0.4-0.1,0.6-0.2l-0.1-0.3C104.9,192,104.7,192.1,104.5,192.2z"/>
		<polygon class="st4" points="103.5,192.4 103.6,192.8 104.2,192.6 104.1,192.3 		"/>
		<path class="st4" d="M102.5,192.7l0.1,0.3c0.2,0,0.4-0.1,0.6-0.1l-0.1-0.3C102.9,192.6,102.7,192.6,102.5,192.7z"/>
		<path class="st4" d="M107.4,191l0.2,0.3c0.2-0.1,0.4-0.2,0.5-0.3l-0.2-0.3C107.7,190.8,107.5,190.9,107.4,191z"/>
		<polygon class="st4" points="106.4,191.4 106.6,191.7 107.1,191.5 107,191.2 		"/>
		<polygon class="st4" points="105.5,191.8 105.6,192.1 106.2,191.9 106,191.6 		"/>
		<path class="st4" d="M110,189.3l0.2,0.3c0.2-0.1,0.3-0.2,0.5-0.3l-0.2-0.3C110.3,189.1,110.1,189.2,110,189.3z"/>
		<polygon class="st4" points="109.1,190 109.3,190.2 109.8,189.9 109.6,189.6 		"/>
		<polygon class="st4" points="108.3,190.5 108.4,190.8 109,190.5 108.8,190.2 		"/>
		<polygon class="st4" points="112.3,187.3 112.5,187.5 112.9,187.1 112.6,186.8 		"/>
		<path class="st4" d="M111.5,188l0.2,0.3c0.1-0.1,0.3-0.3,0.4-0.4l-0.3-0.2C111.8,187.7,111.7,187.9,111.5,188z"/>
		<polygon class="st4" points="110.8,188.7 111,189 111.5,188.6 111.2,188.3 		"/>
		<polygon class="st4" points="114.1,184.8 114.4,185 114.7,184.5 114.4,184.3 		"/>
		<path class="st4" d="M113.5,185.7l0.3,0.2c0.1-0.2,0.2-0.3,0.3-0.5l-0.3-0.2C113.7,185.3,113.7,185.5,113.5,185.7z"/>
		<polygon class="st4" points="112.9,186.5 113.2,186.7 113.6,186.2 113.3,186 		"/>
		<polygon class="st4" points="115.4,182 115.7,182.1 115.9,181.6 115.6,181.5 		"/>
		<path class="st4" d="M115,183l0.3,0.1c0.1-0.2,0.1-0.4,0.2-0.5l-0.3-0.1C115.2,182.6,115.1,182.8,115,183z"/>
		<polygon class="st4" points="114.6,183.9 114.9,184.1 115.2,183.5 114.8,183.4 		"/>
		<polygon class="st4" points="116,179 116.4,179 116.4,178.5 116.1,178.4 		"/>
		<path class="st4" d="M115.9,180l0.3,0.1c0.1-0.2,0.1-0.4,0.1-0.6l-0.4,0C116,179.6,115.9,179.8,115.9,180z"/>
		<polygon class="st4" points="115.7,181 116,181.1 116.1,180.5 115.8,180.5 		"/>
		<polygon class="st4" points="111,176.5 111,176.2 110.4,176.2 110.4,176.6 		"/>
		<polygon class="st4" points="112.1,176.4 112.1,176.1 111.5,176.1 111.5,176.5 		"/>
		<polygon class="st4" points="113.2,176.3 113.2,176 112.6,176 112.6,176.4 		"/>
		<polygon class="st4" points="107.7,176.7 107.7,176.3 107.1,176.3 107.1,176.7 		"/>
		
			<rect x="108.2" y="176.3" transform="matrix(0.9993 -3.678488e-02 3.678488e-02 0.9993 -6.4187 4.1102)" class="st4" width="0.6" height="0.4"/>
		<polygon class="st4" points="109.9,176.6 109.9,176.3 109.3,176.3 109.3,176.6 		"/>
		<polygon class="st4" points="104.4,176.7 104.4,176.4 103.7,176.4 103.7,176.7 		"/>
		
			<rect x="104.8" y="176.4" transform="matrix(1 -2.524923e-03 2.524923e-03 1 -0.4454 0.2661)" class="st4" width="0.6" height="0.4"/>
		<polygon class="st4" points="106.6,176.7 106.6,176.4 106,176.4 106,176.7 		"/>
		
			<rect x="100.5" y="176.2" transform="matrix(3.195694e-02 -0.9995 0.9995 3.195694e-02 -78.8706 271.4905)" class="st4" width="0.4" height="0.6"/>
		
			<rect x="101.7" y="176.2" transform="matrix(2.402092e-02 -0.9997 0.9997 2.402092e-02 -77.0625 274.0547)" class="st4" width="0.4" height="0.6"/>
		<polygon class="st4" points="103.2,176.7 103.2,176.4 102.6,176.3 102.6,176.7 		"/>
		
			<rect x="97.2" y="176" transform="matrix(5.476033e-02 -0.9985 0.9985 5.476033e-02 -83.9871 263.9004)" class="st4" width="0.4" height="0.6"/>
		<polygon class="st4" points="98.8,176.6 98.8,176.2 98.2,176.2 98.2,176.5 		"/>
		
			<rect x="99.4" y="176.1" transform="matrix(3.976294e-02 -0.9992 0.9992 3.976294e-02 -80.6368 268.9288)" class="st4" width="0.4" height="0.6"/>
		<polygon class="st4" points="94.4,176.3 94.4,175.9 93.8,175.9 93.7,176.2 		"/>
		
			<rect x="95" y="175.9" transform="matrix(7.011484e-02 -0.9975 0.9975 7.011484e-02 -87.2328 258.7544)" class="st4" width="0.4" height="0.6"/>
		
			<rect x="96.1" y="175.9" transform="matrix(6.235561e-02 -0.9981 0.9981 6.235561e-02 -85.626 261.3416)" class="st4" width="0.4" height="0.6"/>
		<polygon class="st4" points="91,176 91.1,175.6 90.5,175.6 90.4,175.9 		"/>
		
			<rect x="91.7" y="175.6" transform="matrix(9.563586e-02 -0.9954 0.9954 9.563586e-02 -92.0081 250.4964)" class="st4" width="0.4" height="0.6"/>
		<polygon class="st4" points="93.2,176.2 93.3,175.8 92.7,175.8 92.6,176.1 		"/>
		<polygon class="st4" points="87.7,175.6 87.8,175.2 87.2,175.1 87.1,175.5 		"/>
		
			<rect x="88.4" y="175.2" transform="matrix(0.128 -0.9918 0.9918 0.128 -96.8525 240.8489)" class="st4" width="0.4" height="0.6"/>
		<polygon class="st4" points="89.9,175.9 90,175.5 89.4,175.4 89.3,175.8 		"/>
		<polygon class="st4" points="84.4,175 84.5,174.7 83.9,174.5 83.8,174.9 		"/>
		<polygon class="st4" points="85.5,175.2 85.6,174.9 85,174.8 84.9,175.1 		"/>
		<polygon class="st4" points="86.6,175.4 86.7,175.1 86.1,175 86,175.3 		"/>
		<polygon class="st4" points="116.4,177.8 116,177.8 116,177.4 116,176.9 116.4,176.9 116.4,177.4 		"/>
		<polygon class="st4" points="116.2,175.3 116.3,175.7 116.3,176.2 116,176.2 115.9,175.9 115.9,175.9 115.9,175.9 115.9,175.9 
			115.9,175.9 115.9,175.9 115.9,175.9 115.9,175.9 115.9,175.9 115.9,175.9 115.8,175.9 115.8,175.9 115.7,175.9 115.5,176 
			115.4,175.6 115.6,175.6 115.7,175.6 115.7,175.5 115.8,175.5 116,175.4 116.1,175.3 116.2,175.3 116.2,175.3 116.2,175.3 
			116.2,175.3 116.2,175.3 116.2,175.3 		"/>
		<polygon class="st4" points="114.7,175.8 114.8,176.2 114.7,176.2 114.6,176.2 114.4,176.3 113.9,176.3 113.9,176 114.3,175.9 
			114.5,175.9 114.6,175.9 		"/>
		<polygon class="st4" points="83.3,174.5 83.2,174.8 83,174.7 82.8,174.7 82.5,174.6 82.4,174.6 82.3,174.6 82.4,174.2 82.5,174.2 
			82.6,174.3 82.9,174.3 83.1,174.4 		"/>
		<polygon class="st4" points="81,173.5 81.1,173.6 81.1,173.6 81.2,173.7 81.2,173.7 81.4,173.8 81.5,173.8 81.5,173.8 81.5,173.8 
			81.5,173.9 81.6,173.9 81.8,174 81.6,174.3 81.4,174.2 81.4,174.2 81.3,174.2 81.3,174.1 81.3,174.1 81.3,174.2 81.3,174.2 
			81.3,174.2 81.2,174.2 81.2,174.2 81.2,174.2 81.2,174.2 81.2,174.2 81.2,174.2 81.2,174.2 81.2,174.3 81.1,174.5 80.8,174.4 
			80.9,174 81,173.7 81,173.6 81,173.6 81,173.6 81,173.6 81,173.6 81,173.6 81,173.5 		"/>
		<polygon class="st4" points="80.7,175.1 81,175.2 81,175.6 80.9,176.1 80.6,176 80.6,175.6 		"/>
	</g>
	<circle class="st2" cx="83.5" cy="177.9" r="1.8"/>
	<circle class="st2" cx="113.5" cy="179.4" r="1.8"/>
</g>
<g>
	<g>
		<g>
			<path class="st5" d="M88.1,0.1C67.9,3,82.3,62.5,96.7,60.5C111.1,58.4,108.3-2.8,88.1,0.1z"/>
			<path class="st4" d="M89.6,9.9c-12.9,1.8-1.8,47.7,7.4,46.4C106.2,54.9,102.5,8,89.6,9.9z"/>
		</g>
		<path class="st5" d="M154.9,21c5.7,3.1,8.4,9.3,7.7,11.4C157.3,50,139,71,130.5,66.4c-9-4.8-0.4-34,12.1-47.6
			C145.1,15.9,149.1,17.9,154.9,21z"/>
		<path class="st4" d="M154.4,21.3c11.5,6.1-14.6,45.4-22.8,41C123.4,58,143,15.2,154.4,21.3z"/>
		<path class="st6" d="M163.1,31.3c2.5,8.8,3.2,23.1-4,24.6c-14.5,3-26.2-23.8-16.8-36.7C147.3,12.1,160.6,22.5,163.1,31.3z"/>
		<path class="st5" d="M163.1,31.3c2.5,8.8,3.2,23.1-4,24.6c-14.5,3-26.2-23.8-16.8-36.7C147.3,12.1,160.6,22.5,163.1,31.3z"/>
		
			<ellipse transform="matrix(0.1736 -0.9848 0.9848 0.1736 -12.3352 189.2061)" class="st0" cx="106.6" cy="102" rx="48" ry="61.2"/>
		<g>
			
				<ellipse transform="matrix(0.1736 -0.9848 0.9848 0.1736 -8.1098 186.7665)" class="st2" cx="107.2" cy="98.2" rx="40.5" ry="53.1"/>
			<path class="st3" d="M114.3,58.4C85.4,53.3,58.8,67,55,89c-3.9,22,16.4,44,45.3,49.1c28.9,5.1,55.4-8.6,59.3-30.6
				C163.4,85.4,143.1,63.5,114.3,58.4z M101.7,136.7c-27.8-4.9-47.2-26-43.5-47.2c3.7-21.2,29.3-34.3,57-29.4s47.2,26,43.5,47.2
				C154.9,128.4,129.4,141.6,101.7,136.7z"/>
		</g>
		
			<ellipse transform="matrix(0.1736 -0.9848 0.9848 0.1736 3.558 233.2509)" class="st3" cx="140.8" cy="114.5" rx="4.1" ry="10.7"/>
		
			<ellipse transform="matrix(0.1736 -0.9848 0.9848 0.1736 -42.5414 153.4044)" class="st3" cx="70.1" cy="102.1" rx="4.1" ry="10.7"/>
		<g>
			
				<ellipse transform="matrix(0.1853 -0.9827 0.9827 0.1853 -9.7472 151.7508)" class="st3" cx="86.6" cy="81.8" rx="9.8" ry="6.5"/>
			<ellipse transform="matrix(0.1853 -0.9827 0.9827 0.1853 -8.8988 151.8163)" cx="87.1" cy="81.3" rx="9.3" ry="6.1"/>
			<circle class="st2" cx="87.9" cy="75.2" r="1.4"/>
		</g>
		<g>
			<ellipse transform="matrix(0.229 -0.9734 0.9734 0.229 13.6347 198.1859)" class="st3" cx="131.9" cy="90.5" rx="9.8" ry="6.5"/>
			<ellipse transform="matrix(0.229 -0.9734 0.9734 0.229 14.0668 197.4797)" cx="131.7" cy="89.9" rx="9.3" ry="6.1"/>
			<circle class="st2" cx="133.5" cy="83.9" r="1.4"/>
		</g>
	</g>
	<g>
		<path class="st7" d="M88.2,66.3c0,0-3.9-1.6-6.5,1.5C84,67,85.1,66.4,88.2,66.3z"/>
		<path class="st7" d="M136.2,74.7c0,0,4.2-0.1,5.6,3.7C139.9,76.8,139.1,75.9,136.2,74.7z"/>
	</g>
</g>
<path class="st1" d="M129.4,205.5c-1.5-2.1-2.2-4.4-2.4-6.5c-5.9,4.1-15.5,4.3-18.7,4.2c1,2.8,2.5,6.1,4.2,8
	c0.7,0.8,1.7,1.2,2.7,1.2h10.7C129.4,212.4,131.4,208.4,129.4,205.5z"/>
<g>
	<path id="XMLID_26_" class="st0" d="M94.9,186c-0.6,0.5-1.2,0.7-1.9,0.7c-0.7,0-1.3-0.3-1.8-0.9c-0.5-0.5-0.7-1.2-0.7-1.9
		c0-0.7,0.3-1.3,0.9-1.8c0.5-0.5,1.2-0.7,1.9-0.7c0.7,0,1.3,0.3,1.8,0.9c0.5,0.5,0.7,1.2,0.7,1.9l-0.1,2.2c0,0.1,0,0.2-0.1,0.3
		c-0.1,0.1-0.2,0.1-0.3,0.1c-0.1,0-0.2,0-0.3-0.1c-0.1-0.1-0.1-0.2-0.1-0.3L94.9,186z M93.3,182.2c-0.5,0-1,0.1-1.4,0.5
		c-0.4,0.3-0.6,0.8-0.6,1.3c0,0.5,0.1,1,0.5,1.4c0.3,0.4,0.8,0.6,1.3,0.6c0.5,0,1-0.1,1.4-0.5c0.4-0.3,0.6-0.8,0.6-1.3
		c0-0.5-0.1-1-0.5-1.4C94.2,182.5,93.8,182.3,93.3,182.2z"/>
	<path id="XMLID_23_" class="st0" d="M101.2,180.1c0-0.1,0-0.2,0.1-0.3c0.1-0.1,0.2-0.1,0.3-0.1c0.1,0,0.2,0,0.3,0.1
		c0.1,0.1,0.1,0.2,0.1,0.3l-0.3,4.5c0,0.7-0.3,1.3-0.9,1.8c-0.5,0.5-1.2,0.7-1.9,0.7c-0.7,0-1.3-0.3-1.8-0.9
		c-0.5-0.5-0.7-1.2-0.7-1.9c0-0.7,0.3-1.3,0.9-1.8c0.5-0.5,1.2-0.7,1.9-0.7c0.7,0,1.3,0.3,1.8,0.9c0,0,0,0,0,0L101.2,180.1z
		 M100.9,184.6c0-0.5-0.1-1-0.5-1.4c-0.3-0.4-0.8-0.6-1.3-0.6c-0.5,0-1,0.1-1.4,0.5c-0.4,0.3-0.6,0.8-0.6,1.3c0,0.5,0.1,1,0.5,1.4
		c0.3,0.4,0.8,0.6,1.3,0.6c0.5,0,1-0.1,1.4-0.5C100.7,185.5,100.9,185.1,100.9,184.6z"/>
	<path class="st0" d="M92.3,180.1L92.3,180.1C92.3,180.1,92.3,180.1,92.3,180.1C92.3,180.1,92.3,180.1,92.3,180.1L92.3,180.1
		c-0.1-0.1-0.1-0.1-0.2-0.2c-0.5-0.5-1.1-0.8-1.8-0.9c-0.7,0-1.4,0.2-1.9,0.7c-0.5,0.5-0.8,1.1-0.9,1.8l0,0.1l-0.8,0
		c-0.1,0-0.3,0-0.3,0.2c-0.1,0.2-0.1,0.4,0.1,0.5c0.1,0,0.1,0.1,0.2,0.1l0.8,0l-0.2,3.7c0,0.1,0,0.2,0.1,0.3
		c0.1,0.1,0.2,0.1,0.3,0.1c0.1,0,0.2,0,0.3-0.1c0.1-0.1,0.1-0.2,0.1-0.3l0.2-2.7c0,0,0,0,0,0l0.1-1l1.7,0.1c0.1,0,0.3,0,0.4-0.2
		c0.1-0.2,0.1-0.4-0.1-0.5c-0.1,0-0.1-0.1-0.2-0.1l-1.7-0.1c0,0,0-0.1,0-0.1c0,0,0-0.1,0-0.1l0,0l0,0c0.1-0.4,0.3-0.8,0.6-1.1
		c0.4-0.3,0.8-0.5,1.4-0.5c0.5,0,0.9,0.2,1.3,0.6c0,0,0.1,0.1,0.1,0.2l0,0c0.1,0.1,0.1,0.1,0.2,0.1c0.1,0,0.2,0,0.3-0.1
		c0.1-0.1,0.1-0.1,0.1-0.2C92.3,180.3,92.3,180.2,92.3,180.1z"/>
	<g>
		<circle id="XMLID_22_" class="st0" cx="104.8" cy="188.5" r="0.6"/>
		<circle id="XMLID_21_" class="st0" cx="107.1" cy="188.7" r="0.6"/>
		<path class="st0" d="M106.2,187.6c-0.3,0-0.6-0.1-0.9-0.2c-0.8-0.3-1.5-0.8-1.9-1.6c-0.4-0.7-0.5-1.6-0.3-2.3l0-0.1l-0.2-0.1l0,0
			c-0.1,0-0.1,0-0.2,0c0,0-0.1,0-0.1,0c-0.2-0.1-0.4-0.3-0.3-0.6c0.1-0.2,0.3-0.3,0.5-0.3c0,0,0.1,0,0.1,0c0.1,0,0.2,0.1,0.3,0.3
			l0,0l0.4,0.1c0.1,0,0.2,0.2,0.2,0.3c0,0,0,0.1,0,0.1c-0.4,1.5,0.3,3.1,1.8,3.6c0.2,0.1,0.5,0.1,0.7,0.1c1.3,0.1,2.4-0.7,2.8-1.9
			l0,0l0,0l0,0c0-0.1,0.2-0.2,0.3-0.2c0,0,0.1,0,0.1,0c0.1,0,0.1,0.1,0.2,0.2c0,0.1,0,0.2,0,0.2c0,0,0,0,0,0l0,0
			C109.2,186.7,107.7,187.7,106.2,187.6L106.2,187.6z"/>
		<path class="st0" d="M108.9,184.3c-0.1,1.3-1.2,2.4-2.6,2.3c-1.3-0.1-2.4-1.2-2.3-2.6c0.1-1.3,1.2-2.4,2.6-2.3
			C107.9,181.8,109,183,108.9,184.3z"/>
		<path class="st8" d="M108.9,183.8C108.9,183.8,108.8,183.8,108.9,183.8C108.8,183.7,108.8,183.7,108.9,183.8c0-0.1-0.1,0-0.1,0
			c0,0,0,0,0,0c0,0,0,0,0,0c0,0,0,0,0,0C108.7,183.9,108.7,183.8,108.9,183.8C108.8,183.8,108.8,183.8,108.9,183.8
			C108.8,183.8,108.8,183.8,108.9,183.8C108.9,183.8,108.9,183.8,108.9,183.8z"/>
		<path class="st9" d="M108.7,184.7C108.7,184.7,108.8,184.7,108.7,184.7C108.8,184.6,108.7,184.6,108.7,184.7z"/>
		<path class="st9" d="M108.8,184.7C108.8,184.7,108.8,184.7,108.8,184.7C108.8,184.7,108.7,184.7,108.8,184.7
			C108.7,184.7,108.7,184.7,108.8,184.7C108.8,184.7,108.8,184.7,108.8,184.7C108.8,184.7,108.8,184.7,108.8,184.7
			C108.8,184.7,108.8,184.7,108.8,184.7z"/>
		<g>
			<path class="st9" d="M104.7,184C104.7,184,104.8,184,104.7,184C104.8,184,104.8,184,104.7,184C104.8,184,104.7,184,104.7,184z"/>
			<path class="st9" d="M106.6,185.4c0,0,0.1-0.1,0.1-0.1c0,0,0-0.1,0-0.1c0,0,0,0,0,0c0,0,0-0.1,0.1-0.2c0,0,0.1-0.2,0.1-0.2
				c0-0.1,0-0.1,0-0.2c0,0,0-0.1,0.1-0.1c0,0,0.1-0.1,0.1-0.1c0,0,0-0.1,0-0.1c0,0,0,0-0.1,0c0,0-0.1,0-0.1,0c0,0,0-0.1-0.1-0.1
				c0,0,0-0.1,0-0.1c0,0,0-0.1,0-0.1c0,0,0-0.1,0-0.1c0,0,0,0,0,0c0,0,0,0.1,0.1,0.1c0,0,0.1,0.1,0.1,0.1c0,0,0.1,0,0.1,0
				c0,0,0.1,0,0.1,0c0,0,0.1,0,0.1,0c0,0,0-0.1,0-0.1c0,0,0-0.1,0-0.1c0,0-0.1,0-0.1,0c0,0,0,0,0-0.1c0,0,0,0,0,0c0,0,0,0,0,0
				c0,0,0.1,0,0.1,0.1c0,0,0,0.1,0,0.1c0,0,0.1,0,0.1,0c0,0,0,0,0,0c0,0,0,0,0,0c0.1,0,0.1,0,0.1,0c0,0,0,0.1,0,0.1c0,0,0,0,0,0
				c0,0,0,0,0,0.1c0,0,0,0.1,0,0.1c0,0,0,0.1,0,0.1c0,0,0,0.1,0,0.1c0,0,0,0,0,0c0,0,0-0.1,0.1-0.1c0,0,0-0.1,0-0.1c0,0,0,0,0,0
				c0,0,0,0,0,0c0,0,0-0.1,0-0.1c0,0,0.1,0,0.1,0c0,0,0.1,0,0.1,0c0,0,0,0.1,0,0.1c0,0,0,0,0,0c0,0,0,0,0,0c0,0,0,0,0,0.1
				c0,0,0,0,0,0.1c0,0,0,0.1,0,0.1c0,0,0.1,0.1,0.1,0.1c0,0,0,0,0-0.1c0,0-0.1-0.1-0.1-0.1c0,0,0-0.1,0-0.1c0,0,0,0,0,0c0,0,0,0,0,0
				c0,0,0.1,0,0.1-0.1c0-0.1,0-0.1,0-0.1c0,0,0,0,0,0c0,0,0,0,0,0c0,0,0.1-0.1,0.1-0.1c0,0,0,0,0,0c0,0,0-0.1,0-0.1c0,0,0-0.1,0-0.1
				c0,0,0,0,0-0.1c0,0,0,0,0-0.1c0,0,0,0,0,0c0,0,0,0,0,0c0,0,0,0,0,0c0,0,0,0.1,0,0.1c0,0,0.1-0.1,0.1-0.1c0,0,0-0.1,0-0.1
				c0,0,0,0,0-0.1c-0.1-0.4-0.3-0.7-0.6-1c0,0,0,0,0,0c0,0,0,0,0,0c0,0-0.1-0.1-0.1-0.1c0,0,0,0,0,0c0,0-0.1,0-0.1,0c0,0,0,0,0,0
				c0,0-0.1,0-0.1,0c0,0,0,0,0,0c0,0-0.1,0-0.1,0c0,0-0.1,0-0.1,0c0,0,0,0,0,0c0,0,0,0,0,0c0,0,0,0,0,0.1c0,0,0,0,0,0c0,0,0,0,0,0
				c0,0,0,0,0,0c0,0,0,0,0,0c0,0,0,0,0,0c0,0-0.1,0-0.1,0.1c0,0-0.1,0-0.1,0c0,0,0,0,0,0c0,0,0,0-0.1,0c0,0-0.1,0-0.1,0c0,0,0,0,0,0
				c0,0,0,0,0,0c0,0,0,0.1,0,0.1c0,0,0,0-0.1-0.1c0,0-0.1,0-0.1-0.1c0,0,0,0-0.1,0c0,0-0.1,0-0.1,0c0,0-0.1,0-0.1,0c0,0,0,0,0,0
				c0,0-0.1,0.1-0.1,0.1c0,0-0.1,0.1-0.1,0.1c0,0,0,0,0,0c0,0,0,0,0,0c0,0-0.1,0-0.1,0.1c0,0,0,0.1,0,0.1c0,0,0,0.1,0,0.1
				c0,0,0,0,0,0c0,0,0,0,0,0c0,0,0,0-0.1,0c0,0,0,0,0,0c0,0,0,0-0.1,0c0,0,0,0,0,0c0,0,0,0,0,0c0,0,0-0.1,0-0.1c0,0,0,0,0,0
				c0,0,0,0,0,0c0,0,0,0,0,0c0,0,0,0.1,0,0.1c0,0,0,0,0,0.1c0,0,0,0,0,0c0,0,0,0.1,0,0.1c0,0,0,0,0,0c0,0,0,0,0.1,0c0,0,0,0,0,0
				c0,0-0.1,0-0.1,0c0,0,0,0,0,0c0,0,0,0,0,0c0,0,0,0,0,0.1c0,0,0,0,0,0c0,0-0.1,0-0.1,0c0,0-0.1,0.1-0.1,0.1c0,0,0,0.1,0,0.1
				c0,0,0.1,0,0.1,0c0,0,0.1,0,0.1,0c0,0,0,0,0.1-0.1c0,0,0.1-0.1,0.1-0.1c0,0,0.1,0,0.1,0c0,0,0,0,0,0.1c0,0,0.1,0,0.1,0
				c0,0,0,0,0,0c0,0,0.1,0,0.1,0c0,0,0,0,0,0c0,0,0,0,0,0c0,0,0,0,0,0c0,0,0,0,0,0c0,0,0,0,0,0c0,0,0-0.1,0-0.1c0,0,0,0,0,0
				c0,0,0,0,0,0c0,0,0,0,0,0c0,0,0,0,0,0c0,0,0,0.1,0,0.1c0,0,0,0,0,0c0,0,0,0,0,0c0,0,0,0,0,0c0,0,0,0,0,0c0,0,0-0.1,0-0.1
				c0,0,0,0,0,0c0,0,0,0,0,0.1c0,0,0,0,0,0c0,0,0,0,0,0c0,0,0,0,0,0c0,0,0.1,0,0.1,0c0,0,0,0,0,0c0,0,0,0,0,0c0,0,0,0,0,0.1
				c0,0-0.1,0-0.2,0c0,0-0.1,0-0.1,0c0,0-0.1,0-0.1,0c0,0-0.1-0.1-0.1-0.1c0,0,0,0,0,0c0,0-0.1,0-0.1,0c0,0-0.1,0-0.2,0
				c0,0-0.1,0-0.1,0c0,0,0,0-0.1,0c0,0,0,0.1,0,0.1c0,0,0,0,0,0c0,0,0,0,0,0c0,0-0.1,0.1-0.1,0.1c0,0,0,0.1,0,0.2c0,0,0,0.1,0,0.2
				c0,0,0.1,0.1,0.1,0.1c0,0,0.1,0,0.1,0c0,0,0.1,0,0.1,0c0,0,0,0,0,0c0,0,0,0,0,0c0,0,0,0,0.1,0c0,0,0,0,0.1,0c0,0,0,0.1,0,0.1
				c0,0,0,0.1,0,0.1c0,0,0,0.1,0,0.1c0,0,0,0.1,0,0.1c0,0,0,0.1,0,0.2c0,0,0,0.1,0,0.1c0,0,0,0.1,0,0.1
				C106.4,185.4,106.5,185.4,106.6,185.4z"/>
			<path class="st9" d="M104.9,183.9C104.9,183.9,104.9,183.8,104.9,183.9C104.8,183.8,104.8,183.9,104.9,183.9
				C104.8,183.9,104.8,183.9,104.9,183.9C104.9,183.9,104.9,183.9,104.9,183.9C104.9,183.9,104.9,183.9,104.9,183.9z"/>
			<path class="st9" d="M104.8,184C104.8,184,104.8,184,104.8,184C104.9,184,104.9,184,104.8,184C104.9,184,104.9,183.9,104.8,184
				C104.8,183.9,104.8,183.9,104.8,184C104.8,183.9,104.8,183.9,104.8,184c0-0.1-0.1-0.1-0.1-0.1c0,0-0.1,0-0.1,0c0,0,0,0,0,0
				C104.7,183.9,104.7,183.9,104.8,184C104.8,183.9,104.8,183.9,104.8,184C104.8,183.9,104.8,184,104.8,184z"/>
			<path class="st9" d="M104.8,183.8C104.8,183.8,104.8,183.8,104.8,183.8C104.8,183.8,104.8,183.8,104.8,183.8
				C104.8,183.8,104.8,183.8,104.8,183.8z"/>
			<path class="st9" d="M104.9,184C104.9,184,105,184,104.9,184C105,184,105,184,104.9,184C105,184,104.9,184,104.9,184z"/>
			<path class="st9" d="M104.8,184.8c0,0,0,0.1,0.1,0.1c0,0,0,0.1,0,0.1c0,0,0,0,0,0c0,0,0,0.1,0,0.1c0,0,0,0.1,0,0.2
				c0,0,0,0.1,0,0.1c0,0,0,0,0,0c0,0,0,0,0,0c0,0,0,0,0,0.1c0,0,0,0.1,0,0.1c0,0,0,0.1,0,0.1c0,0,0,0.1,0,0.1c0,0,0,0,0,0
				c0,0,0,0,0,0c0,0,0.1,0,0.1,0c0,0,0,0,0,0c0,0,0-0.1,0-0.1c0,0,0-0.1,0-0.1c0,0,0,0,0,0c0,0,0-0.1,0-0.1c0,0,0-0.1,0-0.1
				c0,0,0.1,0,0.1-0.1c0,0,0.1,0,0.1-0.1c0,0,0-0.1,0-0.1c0,0,0,0,0,0c0,0,0,0,0,0c0,0,0,0,0,0c0,0,0-0.1,0-0.1c0,0,0,0,0-0.1
				c0,0,0,0,0-0.1c0,0,0.1,0,0.1,0c0,0,0-0.1,0-0.1c0,0,0-0.1,0-0.1c0,0,0,0,0,0c0,0,0,0,0-0.1c0,0,0,0,0-0.1c0,0,0,0,0,0
				c0,0,0,0,0,0c0,0,0,0,0,0c0,0,0-0.1,0-0.1c0,0,0,0-0.1,0c0,0-0.1,0-0.1,0c0,0,0,0-0.1,0c0,0-0.1,0-0.1,0c0,0,0-0.1,0-0.1
				c0,0-0.1-0.1-0.1-0.1c0,0-0.1-0.1-0.1-0.1c0,0-0.1,0-0.1,0c0,0,0,0,0,0c0,0-0.1,0-0.1,0c0,0,0,0,0,0c0,0,0,0,0,0
				c0,0,0,0.1-0.1,0.1c0,0,0,0,0,0c0,0,0,0-0.1,0c0,0,0-0.1,0-0.1c0,0,0-0.1,0-0.1c0,0,0-0.1,0-0.1c0,0,0,0-0.1,0c0,0,0,0,0,0
				c0,0-0.1,0-0.1-0.1c0-0.1,0.1-0.1,0.1-0.1c0,0,0.1,0,0.1,0c0,0,0,0,0,0c0,0,0.1,0,0.1,0c0,0,0,0.1,0.1,0.1c0,0,0,0,0-0.1
				c0,0,0,0,0-0.1c0,0,0-0.1,0.1-0.1c0,0,0.1-0.1,0.1-0.1c0,0,0,0,0,0c0,0,0-0.1,0-0.1c0,0,0.1,0,0.1,0c0,0,0,0,0-0.1
				c0,0,0,0,0.1-0.1c0,0,0,0,0,0c0,0,0,0,0.1,0c0,0,0,0,0-0.1c0,0,0,0,0,0c0,0,0,0,0,0c0,0,0.1,0,0.1,0c0,0,0,0,0,0.1c0,0,0,0,0,0
				c0,0,0,0,0,0c0,0,0,0,0,0c0,0,0,0,0,0c0,0,0,0,0-0.1c0,0,0-0.1,0-0.1c0,0,0,0,0,0c0,0,0,0,0-0.1c0,0,0,0,0,0c0,0,0-0.1,0-0.1
				c0,0,0,0,0,0c0,0,0,0,0,0c0,0,0,0,0-0.1c0,0-0.1,0-0.1,0c0,0,0,0,0,0c0,0,0,0,0,0c0,0,0,0.1,0,0.2c0,0,0,0.1,0,0.1c0,0,0,0,0,0
				c0,0,0,0,0,0.1c0,0,0,0,0,0c0,0,0-0.1,0,0c0,0,0,0,0,0c0,0-0.1,0-0.1,0c0,0,0-0.1,0-0.1c0,0,0,0,0,0c0,0,0,0,0.1-0.1
				c0,0,0.1-0.1,0.1-0.1c0,0,0,0,0,0c0,0,0.1,0,0.1,0c0,0,0-0.1,0-0.1c0,0,0,0,0,0c0,0,0,0,0,0c0,0,0,0,0.1,0c0,0,0,0,0.1,0
				c0,0,0,0,0,0c0,0.1,0,0.1,0,0.1c-0.1,0-0.1,0.1-0.1,0.1c0,0,0.1,0,0.1,0.1c0,0,0,0,0,0c0,0,0-0.1,0-0.1c0,0,0,0,0,0c0,0,0,0,0,0
				c0,0,0,0,0,0c0,0,0,0,0,0c0,0,0,0-0.1,0c0,0,0,0,0,0c0,0,0,0,0-0.1c0,0,0,0-0.1,0c0,0,0,0,0,0c0,0-0.1,0-0.1,0c0,0,0,0-0.1,0
				c0,0,0,0-0.1,0c0,0-0.1,0-0.1,0.1c0,0,0,0.1,0,0.1c0,0,0,0,0,0c0,0,0,0,0,0c0,0,0-0.1,0-0.1c0,0,0,0,0,0c0,0,0,0,0,0c0,0,0,0,0,0
				c0,0,0,0,0,0c0,0,0,0,0,0c-0.1,0.1-0.1,0.1-0.2,0.2c0,0,0,0,0,0c0,0-0.1,0.1-0.1,0.1c0,0,0,0,0,0.1c0,0.1-0.1,0.1-0.1,0.2
				c0,0,0,0.1-0.1,0.1c0,0,0,0,0,0.1c0,0,0,0.1,0,0.1c0,0,0,0,0,0c0,0.1-0.1,0.2-0.1,0.3c0,0,0,0,0,0c0,0,0,0,0,0c0,0,0,0,0-0.1
				c0,0,0,0,0,0c0,0,0,0.1,0,0.1c0,0,0,0.1,0,0.1c0,0,0.1,0.1,0.1,0.1c0,0,0.1,0.1,0.1,0.1c0,0,0.1,0,0.1,0c0,0,0,0,0,0c0,0,0,0,0,0
				c0,0,0.1,0,0.1,0c0,0,0,0,0,0c0,0,0,0,0,0c0,0,0,0,0,0.1c0,0,0,0.1,0,0.1c0,0,0,0.1,0,0.1c0,0,0,0.1,0,0.1c0,0,0,0,0,0
				c0,0,0,0.1,0,0.1C104.7,184.7,104.7,184.8,104.8,184.8C104.7,184.8,104.7,184.8,104.8,184.8z"/>
			<path class="st9" d="M105,182.3C105,182.2,105.1,182.2,105,182.3C105.1,182.2,105.1,182.2,105,182.3
				C105.1,182.2,105.1,182.2,105,182.3c0.1,0,0.1-0.1,0.1-0.1c0,0,0.1,0,0.1,0c0,0,0.1,0,0.1,0c0,0,0,0,0,0c0,0,0,0,0.1,0
				c0,0,0,0,0,0c0,0-0.1,0-0.1,0c-0.1,0-0.1,0.1-0.2,0.1C105.1,182.1,105,182.2,105,182.3C104.9,182.2,104.9,182.2,105,182.3
				C104.9,182.3,105,182.3,105,182.3z"/>
			<path class="st9" d="M104.8,182.6C104.8,182.6,104.8,182.7,104.8,182.6C104.9,182.7,104.9,182.6,104.8,182.6c0.1,0,0.1,0,0.1,0
				C104.9,182.7,104.9,182.6,104.8,182.6C104.9,182.6,104.8,182.6,104.8,182.6z"/>
			<path class="st9" d="M106.1,182.2C106.1,182.2,106.1,182.1,106.1,182.2C106.1,182.1,106.2,182.1,106.1,182.2
				c0.1-0.1,0.1-0.1,0.1-0.1c0,0,0,0,0,0c0,0-0.1,0-0.1,0c0,0-0.1,0-0.1,0c0,0,0,0,0,0c0,0,0,0,0,0c0,0-0.1,0-0.1,0c0,0,0,0,0,0
				c0,0-0.1,0-0.1,0c0,0-0.1,0-0.1,0c0,0,0,0,0,0c0,0-0.1,0-0.1,0c0,0-0.2,0-0.2,0c0,0-0.1,0.1-0.1,0.1c0,0,0,0,0,0c0,0-0.1,0-0.1,0
				c0,0,0,0,0,0c0,0,0,0,0,0c0,0,0.1,0,0.1,0c0,0,0,0-0.1,0c0,0,0,0,0,0c0,0,0.1,0,0.1,0c0,0,0.1,0,0.1,0c0,0,0,0.1,0,0.1
				c0,0,0,0.1,0,0.1c0,0,0,0,0,0c0,0,0,0,0,0c0,0,0,0,0,0.1c0,0,0,0,0,0c0,0,0,0,0,0c0,0,0,0.1,0,0.1c0,0,0,0.1,0,0.1c0,0,0,0,0.1,0
				c0,0,0,0,0,0c0,0,0,0,0,0c0,0,0-0.1,0-0.1c0,0,0,0,0.1,0c0,0,0,0,0,0c0,0,0.1,0,0.1,0c0,0,0-0.1,0.1-0.1c0,0,0,0,0,0c0,0,0,0,0,0
				c0,0,0.1,0,0.1,0c0,0,0.1,0,0,0c0,0,0,0,0,0c0,0,0,0,0,0c0,0,0.1,0,0-0.1C106.1,182.3,106.1,182.2,106.1,182.2
				C106.1,182.2,106.1,182.2,106.1,182.2C106.1,182.2,106.1,182.2,106.1,182.2z"/>
			<path class="st9" d="M104.8,183.8C104.7,183.8,104.7,183.8,104.8,183.8C104.7,183.8,104.7,183.8,104.8,183.8
				C104.8,183.8,104.8,183.8,104.8,183.8z"/>
			<path class="st9" d="M107.7,184.4C107.7,184.4,107.8,184.4,107.7,184.4C107.8,184.4,107.8,184.4,107.7,184.4
				C107.8,184.4,107.7,184.4,107.7,184.4z"/>
			<path class="st9" d="M108.6,184.4C108.6,184.4,108.7,184.4,108.6,184.4C108.7,184.4,108.7,184.4,108.6,184.4c0.1-0.1,0-0.1,0-0.1
				C108.7,184.3,108.6,184.3,108.6,184.4C108.6,184.3,108.6,184.3,108.6,184.4C108.6,184.4,108.6,184.4,108.6,184.4
				C108.6,184.4,108.6,184.4,108.6,184.4z"/>
			<path class="st9" d="M108.2,184.7C108.2,184.7,108.2,184.6,108.2,184.7c-0.1-0.1-0.1-0.1-0.1-0.1c0,0,0,0,0,0c0,0,0,0,0-0.1
				c0,0,0,0,0,0c0,0,0,0,0,0C108.1,184.6,108.2,184.7,108.2,184.7C108.2,184.7,108.2,184.7,108.2,184.7z"/>
			<path class="st9" d="M108.7,184.9C108.7,184.9,108.7,185,108.7,184.9c-0.1,0-0.1,0.1-0.1,0.1c0,0,0,0-0.1,0.1c0,0,0,0-0.1,0
				c0,0,0,0,0,0c0,0,0,0,0,0c0,0,0,0,0,0c0,0,0,0,0,0c0,0-0.1,0.1-0.1,0.1c0,0,0,0.1,0,0.1c0,0,0,0.1,0,0.1c0,0,0,0,0,0c0,0,0,0,0,0
				c0,0,0,0.1,0,0.1c0,0,0.1,0,0.1,0c0,0,0,0,0,0C108.6,185.3,108.7,185.2,108.7,184.9C108.7,184.9,108.7,184.9,108.7,184.9z"/>
			<path class="st9" d="M106.9,185.2C106.9,185.2,107,185.2,106.9,185.2c0.1,0,0.1,0,0.1,0c0,0,0-0.1,0-0.1c0,0,0,0,0,0c0,0,0,0,0,0
				c0,0,0-0.1,0-0.1c0,0,0,0,0,0c0,0-0.1,0.1-0.1,0.1c0,0,0,0.1,0,0.1C106.9,185.1,106.9,185.1,106.9,185.2
				C106.9,185.1,106.9,185.2,106.9,185.2z"/>
			<path class="st9" d="M108.6,184.6C108.6,184.6,108.5,184.7,108.6,184.6c-0.1,0.1,0,0.1,0,0.1c0,0,0,0,0,0c0,0,0,0,0,0
				C108.6,184.7,108.6,184.7,108.6,184.6C108.6,184.7,108.6,184.6,108.6,184.6z"/>
			<path class="st9" d="M108.6,184.2C108.6,184.2,108.6,184.2,108.6,184.2C108.6,184.2,108.6,184.2,108.6,184.2
				C108.6,184.3,108.6,184.2,108.6,184.2z"/>
			<path class="st9" d="M108.5,184.6C108.5,184.6,108.5,184.6,108.5,184.6c0-0.1,0-0.1,0-0.1c0,0-0.1,0.1-0.1,0.1c0,0-0.1,0.1,0,0.1
				c0,0,0.1,0,0.1,0c0,0,0,0,0,0c0,0,0,0,0,0C108.4,184.7,108.5,184.7,108.5,184.6C108.5,184.7,108.5,184.6,108.5,184.6z"/>
			<path class="st9" d="M108.5,184C108.5,184,108.5,184.1,108.5,184C108.5,184.1,108.5,184.1,108.5,184
				C108.6,184.1,108.5,184,108.5,184z"/>
			<path class="st9" d="M108.2,184.8c0,0,0.1,0,0.1,0c0,0,0.1,0,0,0C108.4,184.8,108.3,184.8,108.2,184.8
				C108.3,184.8,108.2,184.8,108.2,184.8z"/>
		</g>
	</g>
</g>
<g>
	<path class="st0" d="M117.5,114.7l-22-3.8c0,0,1.2,9,9.2,11.2C112,124.1,116.5,116.3,117.5,114.7z"/>
	<path class="st2" d="M113.8,114.1l-0.4,2.2c0,0-7.7,1.4-14.3-2.5l0.4-2.2L113.8,114.1z"/>
	<path class="st10" d="M104.7,122.1c-2.5-0.7-4.4-2-5.7-3.6c6.4-2.3,9,2.4,9.6,3.8C107.3,122.5,106.1,122.5,104.7,122.1z"/>
</g>
</svg>
